<svg width="40" height="40" viewBox="0 0 40 40" fill="none" xmlns="http://www.w3.org/2000/svg">
<circle opacity="0.2" cx="20" cy="20" r="20" fill="#0C756F"/>
<g clip-path="url(#clip0_203_219)">
<path d="M36.7813 34.9998H3.21161C1.55631 34.9998 0.214355 33.6579 0.214355 32.0026V7.8244C0.214355 6.169 1.55631 4.82715 3.21161 4.82715H17.8326C19.0246 4.82715 20.0636 5.63841 20.3527 6.79473L20.8675 8.85407C21.1566 10.0105 22.1956 10.8217 23.3876 10.8217H36.7812C38.4366 10.8217 39.7785 12.1636 39.7785 13.8189V32.0025C39.7787 33.6579 38.4367 34.9998 36.7813 34.9998Z" fill="#0C756F"/>
<path d="M17.357 6.79571L17.8718 8.85504C18.1609 10.0115 19.1999 10.8226 20.3919 10.8226H23.3891C22.1972 10.8226 21.1582 10.0114 20.869 8.85504L20.3543 6.79571C20.0652 5.63929 19.0262 4.82813 17.8342 4.82813H14.8369C16.0289 4.82803 17.0679 5.63929 17.357 6.79571Z" fill="#034844"/>
<path d="M36.7819 10.8223H33.7847C35.4401 10.8223 36.7819 12.1642 36.7819 13.8195V32.0031C36.7819 33.6585 35.44 35.0004 33.7847 35.0004H36.7819C38.4373 35.0004 39.7792 33.6584 39.7792 32.0031V13.8196C39.7793 12.1642 38.4373 10.8223 36.7819 10.8223Z" fill="#034844"/>
<path d="M27.9808 22.1225H26.2496V20.3599H28.1948C28.6087 20.3599 28.9441 20.0244 28.9441 19.6106C28.9441 19.1968 28.6087 18.8613 28.1948 18.8613H25.5003C25.0864 18.8613 24.751 19.1968 24.751 19.6106V26.2589C24.751 26.6727 25.0864 27.0082 25.5003 27.0082C25.9141 27.0082 26.2496 26.6727 26.2496 26.2589V23.6211H27.9808C28.3946 23.6211 28.7301 23.2857 28.7301 22.8719C28.7302 22.458 28.3946 22.1225 27.9808 22.1225Z" fill="white"/>
<path d="M20.2072 19.0108H18.3665C17.9585 19.0086 17.6146 19.3539 17.6172 19.7615V19.7667V19.7669V26.1538C17.6134 26.593 17.9082 27.0087 18.3797 27.0087H18.3825C18.4381 27.0085 19.7502 27.0035 20.2742 26.9944C22.1903 26.9608 23.5811 25.2852 23.5811 23.0098C23.5811 20.6178 22.2253 19.0108 20.2072 19.0108ZM20.248 25.4958C19.9915 25.5003 19.5279 25.5038 19.1265 25.5063C19.1204 23.6105 19.1204 22.4602 19.1172 20.5094H20.2071C21.5897 20.5094 22.0824 21.8009 22.0824 23.0097C22.0824 24.7049 21.1611 25.4798 20.248 25.4958Z" fill="white"/>
<path d="M13.6639 18.8136H11.7991C11.4286 18.8062 11.0342 19.1417 11.0498 19.5629V26.2601C11.0498 26.674 11.3852 27.0094 11.7991 27.0094C12.2129 27.0094 12.5483 26.674 12.5483 26.2601V24.0962C12.9452 24.0941 13.4061 24.0921 13.6639 24.0921C15.1396 24.0921 16.3403 22.9081 16.3403 21.4528C16.3403 19.9976 15.1396 18.8136 13.6639 18.8136ZM13.6639 22.5935C13.408 22.5935 12.9528 22.5955 12.5573 22.5976C12.5552 22.1895 12.5519 20.7389 12.5507 20.3122H13.6639C14.3023 20.3122 14.8416 20.8345 14.8416 21.4528C14.8416 22.0711 14.3023 22.5935 13.6639 22.5935Z" fill="white"/>
</g>
<defs>
<clipPath id="clip0_203_219">
<rect width="39.3103" height="30" fill="white" transform="translate(0.345215 5)"/>
</clipPath>
</defs>
</svg>
