<svg width="78" height="96" viewBox="0 0 78 96" fill="none" xmlns="http://www.w3.org/2000/svg">
<path opacity="0.06" d="M65.6327 80.187H12.3572C9.15675 80.187 6.5625 77.5926 6.5625 74.3923V5.79469C6.5625 2.59444 9.15675 0 12.3572 0H65.6327C68.8331 0 71.4274 2.59444 71.4274 5.79469V74.3921C71.4274 77.5926 68.8329 80.187 65.6327 80.187Z" fill="#000201"/>
<path d="M65.6327 0H59.838C63.0385 0 65.6327 2.59444 65.6327 5.79469V74.3921C65.6327 77.5926 63.0383 80.1868 59.838 80.1868H65.6327C68.8331 80.1868 71.4274 77.5924 71.4274 74.3921V5.79469C71.4274 2.59444 68.833 0 65.6327 0V0Z" fill="#BCC6C5"/>
<path d="M71.4461 95.9999H6.54469C3.34444 95.9999 0.75 93.4055 0.75 90.2052V43.4607C0.75 40.2603 3.34444 37.666 6.54469 37.666H34.812C37.1166 37.666 39.1252 39.2345 39.6842 41.47L40.6794 45.4514C41.2384 47.6871 43.2471 49.2554 45.5516 49.2554H71.4459C74.6464 49.2554 77.2406 51.8498 77.2406 55.0501V90.205C77.241 93.4055 74.6466 95.9999 71.4461 95.9999Z" fill="#0C756F"/>
<path d="M33.8904 41.47L34.8856 45.4514C35.4446 47.6871 37.4533 49.2554 39.7578 49.2554H45.5525C43.2481 49.2554 41.2393 47.687 40.6803 45.4514L39.6851 41.47C39.1261 39.2343 37.1174 37.666 34.8129 37.666H29.0182C31.3228 37.6658 33.3314 39.2343 33.8904 41.47Z" fill="#034844"/>
<path d="M71.4475 49.2559H65.6528C68.8533 49.2559 71.4475 51.8503 71.4475 55.0505V90.2055C71.4475 93.4059 68.8531 96.0002 65.6528 96.0002H71.4475C74.648 96.0002 77.2422 93.4057 77.2422 90.2055V55.0507C77.2424 51.8503 74.648 49.2559 71.4475 49.2559Z" fill="#034844"/>
<path d="M54.4319 71.1047H51.0849V67.6971H54.8457C55.6458 67.6971 56.2944 67.0485 56.2944 66.2484C56.2944 65.4484 55.6458 64.7998 54.8457 64.7998H49.6362C48.8362 64.7998 48.1876 65.4484 48.1876 66.2484V79.1017C48.1876 79.9018 48.8362 80.5504 49.6362 80.5504C50.4363 80.5504 51.0849 79.9018 51.0849 79.1017V74.0021H54.4319C55.232 74.0021 55.8806 73.3536 55.8806 72.5535C55.8807 71.7534 55.232 71.1047 54.4319 71.1047Z" fill="white"/>
<path d="M39.4036 65.0879H35.8448C35.056 65.0838 34.3911 65.7513 34.3962 66.5394V66.5495V66.5499V78.8979C34.3889 79.7468 34.9587 80.5507 35.8703 80.5507H35.8758C35.9832 80.5503 38.5199 80.5405 39.5329 80.5229C43.2376 80.458 45.9263 77.2184 45.9263 72.8195C45.9263 68.1948 43.3051 65.0879 39.4036 65.0879ZM39.4823 77.6257C38.9864 77.6343 38.0901 77.6412 37.3141 77.6459C37.3023 73.9808 37.3023 71.7569 37.2961 67.9853H39.4034C42.0764 67.9853 43.0289 70.4823 43.0289 72.8193C43.0289 76.0966 41.2476 77.5947 39.4823 77.6257Z" fill="white"/>
<path d="M26.7504 64.7043H23.1449C22.4287 64.6901 21.6661 65.3386 21.6963 66.153V79.101C21.6963 79.901 22.3449 80.5496 23.1449 80.5496C23.945 80.5496 24.5936 79.901 24.5936 79.101V74.9175C25.3608 74.9133 26.2518 74.9094 26.7504 74.9094C29.6034 74.9094 31.9246 72.6204 31.9246 69.8068C31.9246 66.9933 29.6034 64.7043 26.7504 64.7043ZM26.7504 72.0121C26.2556 72.0121 25.3754 72.0161 24.6108 72.02C24.6069 71.231 24.6005 68.4266 24.5981 67.6016H26.7504C27.9845 67.6016 29.0272 68.6115 29.0272 69.8068C29.0272 71.0021 27.9845 72.0121 26.7504 72.0121Z" fill="white"/>
<path d="M60.6191 17.3845H17.3704C16.8369 17.3845 16.4045 16.9521 16.4045 16.4187V9.65819C16.4045 9.12476 16.8369 8.69238 17.3704 8.69238H60.6189C61.1524 8.69238 61.5847 9.12476 61.5847 9.65819V16.4187C61.5847 16.9521 61.1524 17.3845 60.6191 17.3845Z" fill="#BCC6C5"/>
<path d="M61.5862 27.5252H16.406C15.606 27.5252 14.9574 26.8766 14.9574 26.0766C14.9574 25.2765 15.606 24.6279 16.406 24.6279H61.5862C62.3863 24.6279 63.0348 25.2765 63.0348 26.0766C63.0348 26.8766 62.3863 27.5252 61.5862 27.5252Z" fill="#BCC6C5"/>
<path d="M61.5862 33.3201H16.406C15.606 33.3201 14.9574 32.6715 14.9574 31.8715C14.9574 31.0714 15.606 30.4229 16.406 30.4229H61.5862C62.3863 30.4229 63.0348 31.0714 63.0348 31.8715C63.035 32.6715 62.3863 33.3201 61.5862 33.3201Z" fill="#BCC6C5"/>
<path d="M61.5863 39.115H45.3799C44.5798 39.115 43.9313 38.4665 43.9313 37.6664C43.9313 36.8663 44.5798 36.2178 45.3799 36.2178H61.5863C62.3863 36.2178 63.0349 36.8663 63.0349 37.6664C63.0349 38.4665 62.3863 39.115 61.5863 39.115Z" fill="#BCC6C5"/>
<path d="M61.5863 44.909H45.3799C44.5798 44.909 43.9313 44.2604 43.9313 43.4603C43.9313 42.6603 44.5798 42.0117 45.3799 42.0117H61.5863C62.3863 42.0117 63.0349 42.6603 63.0349 43.4603C63.0349 44.2604 62.3863 44.909 61.5863 44.909Z" fill="#BCC6C5"/>
</svg>
